<svg width="2568" height="1550" viewBox="0 0 2568 1550" fill="none" xmlns="http://www.w3.org/2000/svg">
<path fill-rule="evenodd" clip-rule="evenodd" d="M2567.64 1065.59V1072.01L2162.43 1006.59H2177.07L2567.64 1065.59ZM2567.64 1175.98V1161.53L2195.74 1107.11L2567.64 1107.73V1102.24H2162.43H2135.96L2567.64 1175.98ZM504.841 1343.92L2.93555 1550H195.689L308.195 1495.34H1202.92L1196.31 1550H1383.27L1349.88 1406H2078.48L2374.89 1550H2567.64L2431.3 1494.02L2567.64 1491.92V1440.69H2301.42L1840.72 1251.53L2387.34 1251.9L2180.2 1197.89H2567.64V1185.27H2131.84L1910.14 1127.46H1898.12H1873.61H1538.57H1528.06H1505.12L1996.26 1366.06H1340.62L1285.29 1127.46H1247.37L1238.59 1200.13H915.867L1065.46 1127.46H1032.01L954.882 1159.13H817.711H790.208H790.207L790.057 1159.18L770.612 1165.3H770.682L611.065 1215.75L468.423 1215.55L528.073 1197.89H527.966H485.087L224.035 1197.89L574.999 1120.37H2.93555V1126.01H496.949L157.018 1197.89L2.93555 1197.89V1210.5H436.725L2.93555 1323.61V1344.26L504.841 1343.92ZM424.58 1228.54L619.427 1228.37L800.036 1165.3H939.852L570.175 1317.09L120.952 1318.48L424.58 1228.54ZM1556.17 1134.69H1898L2219.58 1229.94L1784.89 1228.6L1556.17 1134.69ZM864.238 1225.22L429.602 1436.36H1210.04L1235.56 1225.22H864.238ZM2567.64 1309.03L2338.76 1313.51L2567.64 1377.05V1410.71L2207.03 1294.58L2567.64 1290.94V1309.03ZM2.93555 1072.01V1065.59L393.506 1006.59H408.146L2.93555 1072.01Z" fill="url(#paint0_linear_219_123)"/>
<path fill-rule="evenodd" clip-rule="evenodd" d="M2564.71 484.405V477.985L2159.5 543.412H2174.14L2564.71 484.405ZM2564.71 374.02V388.471L2192.81 442.886L2564.71 442.274V447.76H2159.5H2133.02L2564.71 374.02ZM501.906 206.082L0 0.000366211H192.754L305.259 54.6558H1199.98L1193.38 0.000366211H1380.33L1346.94 143.996H2075.55L2371.95 0.000366211H2564.71L2428.36 55.983L2564.71 58.0806V109.311H2298.49L1837.79 298.473L2384.4 298.097L2177.26 352.115H2564.71V364.726H2128.9L1907.21 422.538H1895.19H1870.67H1535.63H1525.12H1502.18L1993.33 183.938H1337.68L1282.35 422.538H1244.43L1235.65 349.865H912.931L1062.52 422.538H1029.08L951.946 390.868H814.776H787.272H787.272L787.121 390.821L767.676 384.697H767.747L608.13 334.245L465.487 334.446L525.137 352.115H525.031H482.152H221.099L572.064 429.629H0V423.995H494.014L154.083 352.115H0V339.503H433.79L0 226.385V205.736L501.906 206.082ZM421.645 321.459L616.492 321.634L797.101 384.697H936.916L567.239 232.908L118.017 231.522L421.645 321.459ZM1553.23 415.312H1895.07L2216.64 320.056L1781.95 321.399L1553.23 415.312ZM861.302 324.784L426.666 113.636H1207.11L1232.62 324.784H861.302ZM2564.71 240.971L2335.82 236.491L2564.71 172.952V139.295L2204.1 255.415L2564.71 259.061V240.971ZM0 477.985V484.405L390.57 543.412H405.211L0 477.985Z" fill="url(#paint1_linear_219_123)"/>
<defs>
<linearGradient id="paint0_linear_219_123" x1="1285.29" y1="990.784" x2="1306.14" y2="1630.5" gradientUnits="userSpaceOnUse">
<stop stop-color="#161936"/>
<stop offset="1" stop-color="#070812" stop-opacity="0"/>
</linearGradient>
<linearGradient id="paint1_linear_219_123" x1="1282.64" y1="503" x2="1282.64" y2="0.000376753" gradientUnits="userSpaceOnUse">
<stop stop-color="#161936"/>
<stop offset="1" stop-color="#070812" stop-opacity="0"/>
</linearGradient>
</defs>
</svg>
